<mxfile host="app.diagrams.net" modified="2020-10-03T07:19:47.787Z" agent="5.0 (Macintosh; Intel Mac OS X 10_15_7) AppleWebKit/537.36 (KHTML, like Gecko) Chrome/85.0.4183.121 Safari/537.36" etag="A9INcDOgl2IfN2ilZXLp" version="13.7.7" type="github">
  <diagram name="Page-1" id="2a216829-ef6e-dabb-86c1-c78162f3ba2b">
    <mxGraphModel dx="1056" dy="702" grid="1" gridSize="10" guides="1" tooltips="1" connect="1" arrows="1" fold="1" page="1" pageScale="1" pageWidth="850" pageHeight="1100" background="#ffffff" math="0" shadow="0">
      <root>
        <mxCell id="0" />
        <mxCell id="1" parent="0" />
        <mxCell id="kIRwwmv4vXCAAxYEJwXd-5" value="&lt;h1&gt;Play&lt;/h1&gt;&lt;p&gt;localhost:9000&lt;/p&gt;" style="text;html=1;strokeColor=none;fillColor=none;spacing=5;spacingTop=-20;whiteSpace=wrap;overflow=hidden;rounded=0;" vertex="1" parent="1">
          <mxGeometry x="40" y="40" width="190" height="70" as="geometry" />
        </mxCell>
        <mxCell id="kIRwwmv4vXCAAxYEJwXd-6" value="&lt;h1&gt;Angular&lt;/h1&gt;&lt;p&gt;localhost:5555&lt;/p&gt;" style="text;html=1;strokeColor=none;fillColor=none;spacing=5;spacingTop=-20;whiteSpace=wrap;overflow=hidden;rounded=0;" vertex="1" parent="1">
          <mxGeometry x="850" y="40" width="190" height="70" as="geometry" />
        </mxCell>
        <mxCell id="kIRwwmv4vXCAAxYEJwXd-9" value="ブラウザ&lt;br&gt;localhost:5555/todo/list/1" style="shape=process;whiteSpace=wrap;html=1;backgroundOutline=1;" vertex="1" parent="1">
          <mxGeometry x="700" y="160" width="320" height="60" as="geometry" />
        </mxCell>
        <mxCell id="kIRwwmv4vXCAAxYEJwXd-12" value="views.route&lt;br&gt;&lt;br&gt;REQとコンポーネントを紐付け" style="rounded=1;whiteSpace=wrap;html=1;" vertex="1" parent="1">
          <mxGeometry x="1280" y="300" width="220" height="80" as="geometry" />
        </mxCell>
        <mxCell id="kIRwwmv4vXCAAxYEJwXd-15" value="" style="endArrow=classic;html=1;" edge="1" parent="1" source="kIRwwmv4vXCAAxYEJwXd-14">
          <mxGeometry width="50" height="50" relative="1" as="geometry">
            <mxPoint x="1040" y="198" as="sourcePoint" />
            <mxPoint x="1320" y="290" as="targetPoint" />
            <Array as="points">
              <mxPoint x="1320" y="198" />
            </Array>
          </mxGeometry>
        </mxCell>
        <mxCell id="kIRwwmv4vXCAAxYEJwXd-16" value="コンポーネント&lt;br&gt;&lt;br&gt;Serviceのメソッドを使ってデータを取得し、配列 Deta[ ] に詰める" style="rounded=1;whiteSpace=wrap;html=1;" vertex="1" parent="1">
          <mxGeometry x="1280" y="560" width="220" height="80" as="geometry" />
        </mxCell>
        <mxCell id="kIRwwmv4vXCAAxYEJwXd-17" value="HTML&lt;br&gt;&lt;br&gt;データを表示" style="rounded=1;whiteSpace=wrap;html=1;" vertex="1" parent="1">
          <mxGeometry x="880" y="300" width="220" height="80" as="geometry" />
        </mxCell>
        <mxCell id="kIRwwmv4vXCAAxYEJwXd-19" value="Model&lt;br&gt;&lt;br&gt;export interface&lt;br&gt;&lt;br&gt;配列が持つデータを定義" style="rounded=1;whiteSpace=wrap;html=1;" vertex="1" parent="1">
          <mxGeometry x="1080" y="800" width="240" height="80" as="geometry" />
        </mxCell>
        <mxCell id="kIRwwmv4vXCAAxYEJwXd-20" value="Service&lt;br&gt;&lt;br&gt;HTTP通信でデータを取得するメソッド&lt;br&gt;&lt;br&gt;http / Observable" style="rounded=1;whiteSpace=wrap;html=1;" vertex="1" parent="1">
          <mxGeometry x="860" y="530" width="240" height="120" as="geometry" />
        </mxCell>
        <mxCell id="kIRwwmv4vXCAAxYEJwXd-21" value="" style="endArrow=classic;html=1;" edge="1" parent="1">
          <mxGeometry width="50" height="50" relative="1" as="geometry">
            <mxPoint x="1320" y="390" as="sourcePoint" />
            <mxPoint x="1320" y="550" as="targetPoint" />
          </mxGeometry>
        </mxCell>
        <mxCell id="kIRwwmv4vXCAAxYEJwXd-24" value="呼ぶ" style="endArrow=classic;html=1;" edge="1" parent="1">
          <mxGeometry relative="1" as="geometry">
            <mxPoint x="1270" y="580" as="sourcePoint" />
            <mxPoint x="1110" y="580" as="targetPoint" />
          </mxGeometry>
        </mxCell>
        <mxCell id="kIRwwmv4vXCAAxYEJwXd-28" value="data" style="endArrow=classic;html=1;" edge="1" parent="1">
          <mxGeometry relative="1" as="geometry">
            <mxPoint x="1110" y="620" as="sourcePoint" />
            <mxPoint x="1270" y="620" as="targetPoint" />
          </mxGeometry>
        </mxCell>
        <mxCell id="kIRwwmv4vXCAAxYEJwXd-14" value="REQUEST URL　/todo/list" style="text;html=1;strokeColor=none;fillColor=none;align=center;verticalAlign=middle;whiteSpace=wrap;rounded=0;" vertex="1" parent="1">
          <mxGeometry x="1100" y="180" width="180" height="40" as="geometry" />
        </mxCell>
        <mxCell id="kIRwwmv4vXCAAxYEJwXd-30" value="" style="endArrow=classic;html=1;" edge="1" parent="1" target="kIRwwmv4vXCAAxYEJwXd-14">
          <mxGeometry width="50" height="50" relative="1" as="geometry">
            <mxPoint x="1040" y="199" as="sourcePoint" />
            <mxPoint x="1320" y="290" as="targetPoint" />
            <Array as="points" />
          </mxGeometry>
        </mxCell>
        <mxCell id="kIRwwmv4vXCAAxYEJwXd-32" value="Controller&lt;br&gt;&lt;br&gt;libのメソッドを呼び、データを取得" style="rounded=0;whiteSpace=wrap;html=1;" vertex="1" parent="1">
          <mxGeometry x="500" y="560" width="260" height="80" as="geometry" />
        </mxCell>
        <mxCell id="kIRwwmv4vXCAAxYEJwXd-33" value="Model&lt;br&gt;&lt;br&gt;データを受け取り、jsonに変換" style="rounded=0;whiteSpace=wrap;html=1;" vertex="1" parent="1">
          <mxGeometry x="500" y="800" width="260" height="80" as="geometry" />
        </mxCell>
        <mxCell id="kIRwwmv4vXCAAxYEJwXd-35" value="DB" style="shape=cylinder3;whiteSpace=wrap;html=1;boundedLbl=1;backgroundOutline=1;size=15;" vertex="1" parent="1">
          <mxGeometry x="115" y="800" width="130" height="80" as="geometry" />
        </mxCell>
        <mxCell id="kIRwwmv4vXCAAxYEJwXd-36" value="Repository&lt;br&gt;&lt;br&gt;DBからデータを取得" style="rounded=0;whiteSpace=wrap;html=1;" vertex="1" parent="1">
          <mxGeometry x="80" y="560" width="200" height="80" as="geometry" />
        </mxCell>
        <mxCell id="kIRwwmv4vXCAAxYEJwXd-37" value="" style="endArrow=classic;startArrow=classic;html=1;" edge="1" parent="1">
          <mxGeometry width="50" height="50" relative="1" as="geometry">
            <mxPoint x="180" y="790" as="sourcePoint" />
            <mxPoint x="179.5" y="650" as="targetPoint" />
          </mxGeometry>
        </mxCell>
        <mxCell id="kIRwwmv4vXCAAxYEJwXd-38" value="application.confで、DBのIPを指定" style="text;html=1;strokeColor=none;fillColor=none;align=center;verticalAlign=middle;whiteSpace=wrap;rounded=0;" vertex="1" parent="1">
          <mxGeometry x="190" y="680" width="200" height="20" as="geometry" />
        </mxCell>
        <mxCell id="kIRwwmv4vXCAAxYEJwXd-39" value="lib Model" style="rounded=0;whiteSpace=wrap;html=1;" vertex="1" parent="1">
          <mxGeometry x="320" y="400" width="160" height="80" as="geometry" />
        </mxCell>
        <mxCell id="kIRwwmv4vXCAAxYEJwXd-40" value="" style="endArrow=classic;html=1;" edge="1" parent="1">
          <mxGeometry width="50" height="50" relative="1" as="geometry">
            <mxPoint x="240" y="550" as="sourcePoint" />
            <mxPoint x="310" y="460" as="targetPoint" />
            <Array as="points">
              <mxPoint x="240" y="460" />
            </Array>
          </mxGeometry>
        </mxCell>
        <mxCell id="kIRwwmv4vXCAAxYEJwXd-41" value="" style="endArrow=classic;html=1;" edge="1" parent="1">
          <mxGeometry width="50" height="50" relative="1" as="geometry">
            <mxPoint x="490" y="460" as="sourcePoint" />
            <mxPoint x="560" y="550" as="targetPoint" />
            <Array as="points">
              <mxPoint x="560" y="460" />
            </Array>
          </mxGeometry>
        </mxCell>
        <mxCell id="kIRwwmv4vXCAAxYEJwXd-42" value="" style="endArrow=classic;html=1;" edge="1" parent="1">
          <mxGeometry width="50" height="50" relative="1" as="geometry">
            <mxPoint x="560" y="650" as="sourcePoint" />
            <mxPoint x="560" y="790" as="targetPoint" />
          </mxGeometry>
        </mxCell>
      </root>
    </mxGraphModel>
  </diagram>
</mxfile>
